{"title":"1961. The Curse of the Werewolf","uid":8717226,"size":1530471556,"categoryP":"video","categoryS":"movies","magnet":"?xt=urn:btih:179154d86bd3b54e95e61c64fa6b30b4e3ae6fe3&amp;dn=1961.+The+Curse+of+the+Werewolf&amp;tr=udp%3A%2F%2Ftracker.openbittorrent.com%3A80&amp;tr=udp%3A%2F%2Fopen.demonii.com%3A1337&amp;tr=udp%3A%2F%2Ftracker.coppersurfer.tk%3A6969&amp;tr=udp%3A%2F%2Fexodus.desync.com%3A6969","seeders":4,"leechers":0,"uploader":"mago1974","files":4,"time":1374350191,"description":"General\nFormat                         : AVI\nFormat/Info                    : Audio Video Interleave\nFile size                      : 1.43 GiB\nDuration                       : 1h 32mn\nOverall bit rate               : 2 199 Kbps\nWriting application            : VirtualDubMod 1.5.4.1 (build 2178/release)\nWriting library                : VirtualDubMod build 2178/release\n\nVideo\nID                             : 0\nFormat                         : MPEG-4 Visual\nFormat profile                 : Advanced Simple@L5\nFormat settings, BVOP          : Yes\nFormat settings, QPel          : No\nFormat settings, GMC           : No warppoints\nFormat settings, Matrix        : Custom\nCodec ID                       : XVID\nCodec ID/Hint                  : XviD\nDuration                       : 1h 32mn\nBit rate                       : 2 000 Kbps\nWidth                          : 720 pixels\nHeight                         : 384 pixels\nDisplay aspect ratio           : 1.85:1\nFrame rate                     : 23.976 fps\nColor space                    : YUV\nChroma subsampling             : 4:2:0\nBit depth                      : 8 bits\nScan type                      : Progressive\nCompression mode               : Lossy\nBits/(Pixel*Frame)             : 0.302\nStream size                    : 1.30 GiB (91%)\nWriting library                : XviD 1.2.0.dev47 (UTC 2006-11-01)\n\nAudio\nID                             : 1\nFormat                         : AC-3\nFormat/Info                    : Audio Coding 3\nMode extension                 : CM (complete main)\nFormat settings, Endianness    : Big\nCodec ID                       : 2000\nDuration                       : 1h 32mn\nBit rate mode                  : Constant\nBit rate                       : 192 Kbps\nChannel(s)                     : 2 channels\nChannel positions              : Front: L R\nSampling rate                  : 48.0 KHz\nBit depth                      : 16 bits\nCompression mode               : Lossy\nStream size                    : 127 MiB (9%)\nAlignment                      : Split accross interleaves\nInterleave, duration           : 96 ms (2.30 video frames)\nInterleave, preload duration   : 96 ms\nLanguage                       : English\n","torrent":{"xt":"urn:btih:179154d86bd3b54e95e61c64fa6b30b4e3ae6fe3","amp;dn":"1961.+The+Curse+of+the+Werewolf","amp;tr":["udp%3A%2F%2Ftracker.openbittorrent.com%3A80","udp%3A%2F%2Fopen.demonii.com%3A1337","udp%3A%2F%2Ftracker.coppersurfer.tk%3A6969","udp%3A%2F%2Fexodus.desync.com%3A6969"],"infoHash":"179154d86bd3b54e95e61c64fa6b30b4e3ae6fe3","infoHashBuffer":{"type":"Buffer","data":[23,145,84,216,107,211,181,78,149,230,28,100,250,107,48,180,227,174,111,227]},"announce":[],"urlList":[]}}